<?xml version="1.0" encoding="utf-8"?>
<!-- Generator: Adobe Illustrator 25.0.0, SVG Export Plug-In . SVG Version: 6.00 Build 0)  -->
<svg version="1.1" id="Layer_1" xmlns="http://www.w3.org/2000/svg" xmlns:xlink="http://www.w3.org/1999/xlink" x="0px" y="0px"
	 viewBox="0 0 1920 230" style="enable-background:new 0 0 1920 230;" xml:space="preserve">
<style type="text/css">
	.st0{fill:url(#SVGID_1_);}
	.st1{opacity:4.000000e-02;fill:#FFFFFF;enable-background:new    ;}
</style>
<linearGradient id="SVGID_1_" gradientUnits="userSpaceOnUse" x1="0.4878" y1="719.4084" x2="0.5108" y2="717.4574" gradientTransform="matrix(1920 0 0 -230 0 165341)">
	<stop  offset="1.198083e-07" style="stop-color:#CC2B00"/>
	<stop  offset="1" style="stop-color:#320E00"/>
</linearGradient>
<path class="st0" d="M0,0h1920v230H0V0z"/>
<g>
	<path class="st1" d="M271.4,42.3l66.8-17.7l2.2,52.8L273.6,95L271.4,42.3z"/>
	<path class="st1" d="M320.4,58.1l47.9-13.4l-0.9,39.6l-47.9,13.4L320.4,58.1z"/>
	<path class="st1" d="M58.6,101.7L162.8,74l3.4,82.3L62,184L58.6,101.7z"/>
	<path class="st1" d="M134.9,126.4l74.7-20.9l-1.3,61.7l-74.7,20.9L134.9,126.4z"/>
	<path class="st1" d="M1591.5,35.8l53.7,12.6l-0.8,41.1l-53.7-12.6L1591.5,35.8z"/>
	<path class="st1" d="M1621.7,62.9l38.6,9.7l1.3,30.7l-38.6-9.7L1621.7,62.9z"/>
	<path class="st1" d="M1776.7,102.7l83.4,19.7l-1.2,64l-83.4-19.7L1776.7,102.7z"/>
	<path class="st1" d="M1823.7,145l60.1,15.1l2,47.7l-60.1-15.1L1823.7,145z"/>
</g>
</svg>
